<svg width="24" height="24" viewBox="0 0 24 24" fill="none" xmlns="http://www.w3.org/2000/svg">
<rect width="24" height="24" fill="#F6F7FA"/>
<g clip-path="url(#clip0)">
<rect width="1256" height="1468" transform="translate(-360 -282)" fill="#F6F7FA"/>
<rect x="-312" y="-250" width="360" height="528" rx="16" fill="white"/>
<circle cx="12" cy="12" r="12" fill="#FFC22B"/>
<g clip-path="url(#clip1)">
<path d="M15.857 8.14282C15.9358 8.13898 16.0148 8.13705 16.0941 8.13705C16.6147 8.13705 17.1225 8.22015 17.6024 8.37994C18.1049 7.705 18.3767 6.89003 18.3767 6.03329C18.3767 5.80685 18.1931 5.62314 17.9665 5.62314C17.0883 5.62314 16.2764 5.91206 15.6206 6.39977C15.7799 6.87903 15.8627 7.38606 15.8627 7.90581C15.8627 7.98495 15.8608 8.064 15.857 8.14282Z" fill="white"/>
<path d="M8.99828 14.9965C8.9015 14.8995 8.81018 14.7993 8.72356 14.6964L5.12016 18.2999C4.95995 18.46 4.95995 18.7197 5.12016 18.8798C5.20027 18.9599 5.30516 19 5.41016 19C5.51515 19 5.62004 18.9599 5.70015 18.8798L9.30344 15.2766C9.1993 15.1888 9.09825 15.0965 9.00095 14.9991C9.00009 14.9982 8.99913 14.9973 8.99828 14.9965Z" fill="white"/>
<path d="M13.8806 8.71928C13.9338 8.95587 13.9681 9.19513 13.9848 9.43503L15.0109 8.40921C15.0319 8.24344 15.0427 8.07542 15.0427 7.9057C15.0427 6.8535 14.633 5.86421 13.8889 5.12016C13.8119 5.04315 13.7077 5 13.5988 5C13.4901 5 13.3857 5.04315 13.3088 5.12016C12.9613 5.46773 12.6868 5.8688 12.4927 6.30481C12.5318 6.33546 12.5695 6.36826 12.605 6.40393C13.2423 7.04117 13.6833 7.84183 13.8806 8.71928Z" fill="white"/>
<path d="M18.88 10.1111C18.136 9.3671 17.1467 8.95737 16.0945 8.95737C15.9247 8.95737 15.7566 8.96815 15.591 8.9893L14.5674 10.0128C15.7119 10.0922 16.7771 10.5759 17.5962 11.395C17.6319 11.4307 17.6647 11.4683 17.6954 11.5073C18.129 11.3144 18.5282 11.0417 18.8745 10.6967C18.9144 10.6582 18.9469 10.6115 18.969 10.5582C19.0324 10.4049 18.9973 10.2285 18.88 10.1111Z" fill="white"/>
<path d="M12.1232 11.2964L13.1436 10.2761C13.2941 9.10594 12.9217 7.88081 12.0249 6.98402C11.9479 6.90712 11.8435 6.86386 11.7348 6.86386C11.6261 6.86386 11.5216 6.90712 11.4447 6.98413C11.0923 7.3365 10.821 7.73961 10.6304 8.17017C10.6688 8.20039 10.7059 8.23276 10.7409 8.2679C11.5601 9.08693 12.0437 10.1519 12.1232 11.2964Z" fill="white"/>
<path d="M14.2305 10.8212C14.0607 10.8212 13.8926 10.832 13.7268 10.8532L12.7031 11.8766C13.8477 11.9561 14.9128 12.4397 15.732 13.2588C15.7677 13.2944 15.8007 13.3322 15.8313 13.3712C16.2672 13.1773 16.6683 12.9027 17.016 12.5551C17.0929 12.4782 17.1361 12.3738 17.1361 12.2651C17.1361 12.1563 17.0929 12.052 17.016 11.9751C16.2719 11.231 15.2827 10.8212 14.2305 10.8212Z" fill="white"/>
<path d="M11.315 11.6335C11.315 10.5812 10.9052 9.59195 10.1611 8.84801C10.081 8.7679 9.97602 8.72784 9.87114 8.72784C9.76614 8.72784 9.66114 8.7679 9.58114 8.84801C8.14314 10.2859 8.0515 12.5681 9.306 14.1138L11.2831 12.1367C11.3041 11.9711 11.315 11.8032 11.315 11.6335Z" fill="white"/>
<path d="M12.3665 12.6851C12.1967 12.6851 12.0285 12.696 11.8627 12.717L9.88574 14.694C10.5853 15.2632 11.4519 15.5727 12.3664 15.5728H12.3668C13.4187 15.5728 14.4079 15.1631 15.152 14.4191C15.229 14.3422 15.2721 14.2377 15.2721 14.129C15.2721 14.0202 15.229 13.9159 15.152 13.839C14.4079 13.0948 13.4187 12.6851 12.3665 12.6851Z" fill="white"/>
</g>
</g>
<defs>
<clipPath id="clip0">
<rect width="1256" height="1468" fill="white" transform="translate(-360 -282)"/>
</clipPath>
<clipPath id="clip1">
<rect width="14" height="14" fill="white" transform="translate(5 5)"/>
</clipPath>
</defs>
</svg>
